<svg width="160" height="181" viewBox="0 0 160 181" fill="none" xmlns="http://www.w3.org/2000/svg">
<g clip-path="url(#clip0_2339_1515)">
<path d="M69.7159 99.5111C66.5751 101.969 63.4958 103.859 60.4658 105.28C65.4912 96.7812 64.7275 77.5855 64.1116 80.3278C61.1801 93.409 52.9646 107.75 49.8484 108.454C49.8237 108.454 49.8114 108.454 49.7991 108.454C41.4234 109.541 33.7991 107.281 27.4434 103.711C27.4434 103.711 27.4434 103.674 27.4681 103.674C33.9469 94.0637 33.6759 74.5469 33.2448 75.7327C28.4904 88.468 18.6736 95.9042 16.9738 95.8795C10.6674 89.8391 7.32949 83.7988 8.22864 83.1935C14.7691 78.7343 20.3364 67.2589 25.3495 55.1165C30.3133 43.1346 32.8137 31.7581 39.7975 21.0732C46.1902 11.2901 58.9507 9.4496 66.1686 14.44C85.1247 27.5582 73.7683 96.3242 69.7283 99.4987L69.7159 99.5111Z" fill="#263238"/>
<path d="M50.0078 14.9835C44.7484 16.2187 40.4251 21.0609 37.6783 25.5201C34.0201 31.4493 31.606 38.169 28.5883 44.444C22.6267 56.8458 15.1256 68.2348 5.69064 78.2032C5.48125 78.4255 5.77686 78.7096 5.99857 78.5367C16.1972 70.8288 23.181 59.7734 28.9085 48.4091C31.84 42.6035 34.131 36.5138 36.9023 30.634C38.4174 27.41 40.1787 24.2972 42.5067 21.6044C44.7607 18.9857 47.3473 17.4293 50.3527 15.8729C50.8454 15.6258 50.5374 14.8476 50.0078 14.9711V14.9835Z" fill="#263238"/>
<path d="M62.1158 70.2482C82.3899 91.5685 107.615 136.111 102.627 144.98C97.0719 154.85 67.831 124.5 68.7425 123.055C69.5184 121.82 59.4184 94.9901 52.0773 75.3745C44.7486 55.7712 57.1027 64.9737 62.1158 70.2482Z" fill="#FFC4C0"/>
<path d="M86.9717 95.8054L57.8539 101.068C57.8539 101.068 50.5868 80.3772 49.1457 68.8895C48.3328 62.4539 52.1141 62.1821 56.8562 65.6037C73.4721 77.5856 86.9717 95.8054 86.9717 95.8054Z" fill="#37474F"/>
<path d="M58.0376 96.2748C62.4472 95.0889 74.518 92.2355 82.5981 91.4079C82.6473 91.4079 82.6843 91.5808 82.635 91.5932C76.0207 93.2978 62.595 95.7436 58.0992 96.5465C58.013 96.5589 57.9514 96.2995 58.0376 96.2748Z" fill="#263238"/>
<path d="M83.067 96.5095L57.8415 101.055C57.8415 101.055 50.5743 80.3649 49.1332 68.8771C48.6159 64.7514 49.9708 63.1703 52.2741 63.442L83.067 96.4971V96.5095Z" fill="#263238"/>
<path d="M73.951 144.103H0.146484C0.146484 144.103 8.8424 93.3966 32.6145 66.246C39.0318 58.921 48.6761 60.1563 54.1819 65.122C55.5491 66.3572 57.4583 68.5436 59.5399 71.2241C64.5406 77.672 72.7069 93.1372 73.4706 97.3247C74.7269 104.242 68.6299 111.715 68.6299 111.715L73.951 144.116V144.103Z" fill="#455A64"/>
<path d="M102.627 144.98C97.8725 151.564 85.2104 152.626 53.5799 158.284C49.2073 159.062 35.3752 129.577 40.0064 128.502C45.8448 127.143 68.767 123.141 70.4791 123.067C84.9394 122.388 105.842 140.521 102.615 144.98H102.627Z" fill="#FFC4C0"/>
<path d="M46.3367 127.156C46.3367 127.156 32.9479 128.959 26.1981 132.084C17.1696 136.272 11.0972 143.622 8.73234 146.858C3.80547 153.602 -3.46166 173.342 1.84704 176.43C6.65074 179.221 13.0557 158.679 13.0557 158.679C13.0557 158.679 3.07876 178.542 9.47137 180.852C15.864 183.149 21.9487 158.877 21.9487 158.877C21.9487 158.877 12.1565 179.518 19.128 180.852C24.3998 181.852 31.1373 160.174 31.1373 160.174C31.1373 160.174 22.8355 177.974 28.2058 179.246C34.1427 180.642 41.6192 161.026 41.6192 161.026C55.8209 161.94 62.9525 156.542 67.5715 152.108C68.6923 151.033 46.3243 127.168 46.3243 127.168L46.3367 127.156Z" fill="#FFC4C0"/>
<path d="M16.0743 151.589C14.8179 153.874 13.5246 156.196 12.4777 158.58C11.4307 160.977 10.4577 163.41 9.64473 165.893C7.62471 171.983 7.31678 176.108 7.36605 175.861C8.4746 169.883 12.0958 161.248 13.1551 158.852C14.2021 156.456 15.1259 154.022 16.1728 151.626C16.1975 151.564 16.1112 151.539 16.0866 151.589H16.0743Z" fill="#263238"/>
<path d="M24.7703 155.233C23.2922 158.222 21.7156 161.15 20.3731 164.213C19.0305 167.264 18.0328 170.266 16.8996 173.403C16.8134 173.65 16.9735 173.613 17.0721 173.379C18.3284 170.29 19.7203 167.536 21.0012 164.472C22.2822 161.409 23.4524 158.284 24.8442 155.27C24.8688 155.221 24.7949 155.196 24.7703 155.245V155.233Z" fill="#263238"/>
<path d="M32.7882 157.012C30.3002 161.471 28.625 166.387 27.11 171.254C27.0361 171.501 27.2332 171.427 27.3194 171.192C29.1177 166.424 30.4972 162.669 32.9483 157.098C32.9853 157.012 32.8498 156.913 32.7882 157.012Z" fill="#263238"/>
<path d="M84.4451 126.612C82.3388 125.278 76.3896 122.141 70.5267 123.005C70.4651 123.005 70.4651 123.104 70.5267 123.104C75.355 123.08 82.2526 125.562 84.3958 126.686C84.4574 126.711 84.4943 126.637 84.4451 126.6V126.612Z" fill="#263238"/>
<path d="M30.8159 81.736C34.1415 101.08 44.7712 135.642 54.625 140.731C64.1831 145.66 110.693 130.676 119.007 124.549C122.308 122.104 106.135 101.24 101.837 102.142C85.1099 105.675 68.6912 111.308 66.1292 110.468C64.7004 109.998 51.2377 89.8021 42.16 77.4003C30.7543 61.8239 29.3255 73.0522 30.8159 81.736Z" fill="#FFC4C0"/>
<path d="M117.185 125.698C119.094 125.006 134.687 114.705 138.567 110.184C141.043 107.305 145.305 102.315 148.68 94.3849C152.572 85.2317 154.395 78.5367 153.446 75.5474C152.35 72.064 149.135 73.2622 142.94 86.7016C138.74 95.8054 132.877 96.2748 128.603 96.2006C111.1 95.9042 97.9082 103.007 97.9082 103.007C97.9082 103.007 109.807 128.354 117.172 125.698H117.185Z" fill="#FFC4C0"/>
<path d="M137.287 57.0188L114.118 89.3451C113.441 90.2962 113.724 91.3091 114.759 91.5932L133.333 96.8306C134.367 97.1271 135.772 96.5836 136.449 95.6324L159.618 63.3062C160.295 62.355 160.012 61.3421 158.977 61.058L140.403 55.8206C139.368 55.5241 137.964 56.0553 137.287 57.0188Z" fill="#263238"/>
<path d="M135.611 56.6358L112.442 88.9621C111.765 89.9133 112.048 90.9262 113.083 91.2103L131.657 96.4477C132.692 96.7442 134.096 96.2007 134.773 95.2495L157.942 62.9232C158.619 61.9721 158.336 60.9592 157.301 60.6751L138.727 55.4377C137.692 55.1412 136.288 55.6724 135.611 56.6358Z" fill="#37474F"/>
<path d="M135.624 58.5875L114.377 88.2333C113.724 89.1351 113.958 90.0862 114.882 90.3456L131.498 95.0272C132.434 95.2866 133.702 94.7678 134.355 93.866L155.602 64.2202C156.92 62.3797 156.465 61.7497 155.528 61.4903L152.203 60.5516C152.006 60.5022 151.71 60.6504 151.538 60.8974L151.464 61.0086C151.057 61.5892 150.7 61.4903 150.269 61.3668L142.571 59.1928C142.14 59.0693 141.795 58.9705 142.201 58.3899L142.275 58.2787C142.448 58.0317 142.435 57.797 142.238 57.7352L138.913 56.7964C137.989 56.537 136.831 56.8829 135.612 58.5752L135.624 58.5875Z" fill="white"/>
<path d="M145.883 59.2669L147.977 59.8598C148.051 59.8845 148.15 59.8475 148.187 59.7857C148.236 59.724 148.211 59.6498 148.138 59.6375L146.044 59.0446C145.97 59.0199 145.871 59.0569 145.834 59.1187C145.785 59.1805 145.81 59.2546 145.883 59.2669Z" fill="white"/>
<path d="M126.041 76.8691L140.156 80.8589L149.271 68.1483L135.156 64.1585L126.041 76.8691Z" fill="#FFC727"/>
<path d="M130.426 80.6242L138.666 82.9465L139.196 82.193L130.955 79.8708L130.426 80.6242Z" fill="#A6A6A6"/>
<path d="M128.023 81.4148L137.791 84.1694L138.05 83.7988L128.294 81.0442L128.023 81.4148Z" fill="#A6A6A6"/>
<path d="M127.543 82.1065L137.298 84.8488L137.569 84.4782L127.802 81.736L127.543 82.1065Z" fill="#A6A6A6"/>
<path d="M127.051 82.7859L136.806 85.5405L137.077 85.1699L127.322 82.4153L127.051 82.7859Z" fill="#A6A6A6"/>
<path d="M150.281 63.7756L152.043 64.282L152.264 63.9732L150.503 63.4791L150.281 63.7756Z" fill="#A6A6A6"/>
<path d="M149.875 64.3438L151.636 64.8379L151.858 64.529L150.097 64.0349L149.875 64.3438Z" fill="#A6A6A6"/>
<path d="M149.48 64.912L151.23 65.4061L151.451 65.0973L149.702 64.6032L149.48 64.912Z" fill="#A6A6A6"/>
<path d="M124.858 78.7961C124.883 79.1172 125.043 79.3025 125.043 79.3025C125.043 79.3025 125.376 79.2655 125.782 79.0555C126.25 78.8331 126.509 78.4132 126.164 78.3143C125.893 78.2402 125.573 78.5614 125.573 78.5614C125.573 78.5614 125.77 78.2032 125.487 78.1291C125.142 78.0302 124.809 78.4255 124.858 78.7961Z" fill="#FFC727"/>
<path d="M119.623 88.1222L131.004 91.3338L133.11 88.4063L121.717 85.1946L119.623 88.1222Z" fill="#FFC727"/>
<path d="M130.744 96.1142C126.335 96.1883 140.647 87.1957 140.856 82.156C141.066 77.1285 136.176 78.722 132.333 81.563C118.969 91.4573 108.881 90.9879 102.107 100.425C95.3445 109.862 130.744 96.1018 130.744 96.1018V96.1142Z" fill="#FFC4C0"/>
<path d="M87.929 105.477C84.5172 106.095 69.0468 110.109 67.3347 110.418C67.2115 110.443 67.2731 110.604 67.3963 110.604C69.5395 110.542 84.7512 106.898 87.9906 105.663C88.1138 105.613 88.0522 105.453 87.929 105.477Z" fill="#263238"/>
<path d="M101.072 132.319C93.0167 135.185 83.8527 137.519 75.4894 139.274C71.2646 140.163 66.9905 140.953 62.7042 141.497C60.6718 141.756 58.5656 141.892 56.6072 141.213C54.9567 140.645 53.5525 139.694 52.407 138.409C51.0398 136.852 46.0144 129.861 44.6226 126.995C44.5733 126.884 44.4132 126.995 44.4624 127.094C46.0021 130.516 49.882 136.494 50.9905 138.051C51.9636 139.422 53.146 140.509 54.5871 141.41C56.2007 142.436 58.0975 142.794 59.9944 142.757C62.1129 142.72 64.2192 142.3 66.3008 141.966C68.5179 141.608 70.7226 141.2 72.9151 140.756C77.3123 139.866 81.6726 138.816 85.9836 137.569C90.8735 136.148 96.4162 134.345 101.171 132.541C101.318 132.492 101.245 132.257 101.097 132.307L101.072 132.319Z" fill="#263238"/>
<path d="M34.869 115.668L57.1015 96.0895C57.1015 96.0895 45.4741 77.4991 37.4064 69.223C32.886 64.5785 30.324 67.3825 30.0407 73.2375C29.043 93.7302 34.869 115.68 34.869 115.68V115.668Z" fill="#37474F"/>
<path d="M53.2463 93.2608C49.5758 95.9907 39.8452 103.674 34.167 109.504C34.13 109.541 34.2532 109.689 34.2902 109.652C39.7467 105.514 50.0069 96.5095 53.431 93.4708C53.4926 93.409 53.3202 93.199 53.2586 93.2484L53.2463 93.2608Z" fill="#263238"/>
<path d="M38.6742 112.185C38.0583 112.765 35.5949 114.865 34.979 115.372C34.6711 113.432 34.2646 111.715 33.8951 109.788C33.4763 107.627 33.0822 105.465 32.725 103.303C31.986 98.8935 31.3947 94.459 30.7789 90.0244C30.7666 89.9256 30.6188 89.9256 30.6311 90.0244C30.7173 92.5073 30.9144 94.9778 31.1854 97.4483C30.8774 96.423 30.5941 95.3978 30.3355 94.3725C30.3232 94.3107 30.2369 94.3354 30.2492 94.3972C30.5079 95.7683 30.8774 97.1024 31.3085 98.4365C31.5056 100.055 31.715 101.66 31.9737 103.266C32.3062 105.379 32.688 107.466 33.1191 109.554C33.5626 111.728 33.9567 114 34.6834 116.1C34.7327 116.261 38.2185 112.951 38.8466 112.308C38.9329 112.222 38.7974 112.086 38.7111 112.172L38.6742 112.185Z" fill="#263238"/>
<path d="M57.3712 95.9165C56.1518 93.829 54.7354 91.8279 53.3682 89.8392C53.0972 89.1968 52.8385 88.5669 52.5306 87.9492C52.1488 87.171 51.693 86.3558 51.1511 85.664C51.1264 85.627 51.0772 85.664 51.0895 85.7011C51.2865 86.084 51.5206 86.4546 51.7177 86.8252C51.9147 87.2081 52.1118 87.591 52.3089 87.9739C52.5183 88.3692 52.7153 88.7645 52.8878 89.1721C51.5452 87.2204 50.1534 85.3058 48.6753 83.453C48.6384 83.4035 48.5521 83.453 48.5891 83.5147C49.8454 85.7134 51.2003 87.8504 52.6168 89.9503C53.9963 91.9885 55.3512 94.0884 56.8662 96.0401C56.5706 96.3365 56.2873 96.6206 56.0163 96.9418C55.9424 97.0283 56.041 97.1518 56.1395 97.09C56.546 96.8306 56.9155 96.5465 57.2973 96.2624C57.3959 96.1883 57.4451 96.0524 57.3712 95.9412V95.9165Z" fill="#263238"/>
<path d="M44.0217 59.131C38.8115 60.4898 39.1318 66.2213 42.8639 71.4588C46.596 76.6962 51.6953 77.9314 54.2203 77.215C56.7453 76.4985 58.7284 73.361 55.5998 67.0366C51.6214 58.9705 47.1625 58.3158 44.0217 59.1434V59.131Z" fill="#37474F"/>
<path d="M42.1484 62.8615C42.2347 64.1214 46.7304 72.9287 52.2978 73.571C54.1084 73.781 55.6727 63.8991 55.6727 63.8991L55.956 63.195L59.8975 53.3501L49.1815 43.7029L47.6173 42.4059C47.6173 42.4059 46.7181 45.1728 45.6342 48.6191C45.5849 48.7797 45.5357 48.9403 45.4741 49.1132C45.4125 49.3109 45.3386 49.4838 45.2893 49.6691C45.1169 50.1879 44.9444 50.7067 44.7966 51.2378C44.6735 51.6331 44.5503 52.0284 44.4394 52.4484C44.3163 52.8684 44.2054 53.2883 44.0822 53.7083C42.9491 57.9082 42.1238 62.318 42.1608 62.8491L42.1484 62.8615Z" fill="#FFC4C0"/>
<path d="M45.6211 48.6191C47.2223 57.2288 53.1592 61.5892 55.9429 63.195L59.8844 53.3501L49.1684 43.7029L47.6042 42.4059C47.6042 42.4059 46.705 45.1728 45.6211 48.6191Z" fill="#263238"/>
<path d="M77.461 41.7265C74.8744 60.1563 63.5795 60.6874 59.6257 60.1192C56.0291 59.6128 43.8474 57.4141 44.5125 38.8113C45.1777 20.2086 54.5387 15.5888 62.8282 16.3299C71.1176 17.0587 80.0476 23.2967 77.461 41.7265Z" fill="#FFC4C0"/>
<path d="M74.4079 36.8843C73.9891 36.7484 73.6319 36.5632 73.2255 36.3902C72.7697 36.1926 72.4002 36.0814 72.1169 35.6491C71.9691 35.4144 72.0553 35.0191 72.2647 34.8585C72.7574 34.4756 73.3733 34.5744 73.9276 34.7844C74.5311 35.0191 74.9253 35.3526 75.2455 35.9085C75.5534 36.452 74.9499 37.0573 74.4079 36.8843Z" fill="#263238"/>
<path d="M62.6696 34.6979C63.1007 34.735 63.5195 34.6979 63.9506 34.6732C64.4433 34.6609 64.8374 34.6979 65.2562 34.4015C65.4779 34.2409 65.5395 33.8456 65.404 33.6109C65.0961 33.0674 64.4802 32.9315 63.889 32.9315C63.2485 32.9315 62.7435 33.0798 62.2508 33.4874C61.7581 33.8703 62.0907 34.6609 62.6696 34.7103V34.6979Z" fill="#263238"/>
<path d="M64.208 39.7871C64.208 39.7871 64.0972 39.8242 64.0972 39.8859C63.9247 41.1459 63.5183 42.5541 62.3235 42.7764C62.2866 42.7764 62.2742 42.8505 62.3235 42.8505C63.7277 42.8876 64.2573 41.01 64.208 39.7995V39.7871Z" fill="#263238"/>
<path d="M63.3089 38.2925C61.3258 37.7984 60.5006 41.8006 62.3235 42.2576C64.1218 42.7023 64.9594 38.7001 63.3089 38.2925Z" fill="#263238"/>
<path d="M62.484 38.3419C62.0899 38.4901 61.6588 38.8236 61.24 38.7742C60.7473 38.7248 60.464 38.2184 60.23 37.749C60.2053 37.6996 60.1684 37.7243 60.1561 37.786C59.9836 38.5519 60.1191 39.4042 60.9074 39.6883C61.6341 39.9477 62.3116 39.3795 62.6688 38.6507C62.7304 38.5148 62.6565 38.2801 62.4963 38.3419H62.484Z" fill="#263238"/>
<path d="M71.4515 40.7506C71.4515 40.7506 71.5377 40.8248 71.5254 40.8865C71.2175 42.1218 71.0697 43.5793 72.1043 44.234C72.1413 44.2587 72.1166 44.3205 72.0797 44.2958C70.7617 43.8017 70.9711 41.8747 71.4638 40.7506H71.4515Z" fill="#263238"/>
<path d="M72.8303 39.7007C74.8503 39.9848 74.1359 44.0117 72.2637 43.7523C70.4284 43.4929 71.1305 39.466 72.8303 39.7007Z" fill="#263238"/>
<path d="M73.6194 40.1083C73.9027 40.3801 74.149 40.8247 74.5185 40.9112C74.9496 41.0224 75.3561 40.6395 75.7133 40.2689C75.7503 40.2318 75.7749 40.2689 75.7626 40.3183C75.6517 41.0965 75.2576 41.85 74.4939 41.8624C73.7918 41.8747 73.4223 41.1336 73.373 40.3307C73.373 40.1824 73.5085 39.9848 73.6194 40.096V40.1083Z" fill="#263238"/>
<path d="M61.5964 49.422C61.8181 49.7802 62.0029 50.2496 62.4463 50.4102C62.8651 50.5585 63.4071 50.4967 63.8382 50.4349C63.8751 50.4349 63.9121 50.4843 63.8751 50.509C63.4317 50.892 62.6927 51.0155 62.1507 50.7808C61.6211 50.5461 61.4733 49.9902 61.4609 49.4467C61.4609 49.3726 61.5595 49.3726 61.5964 49.422Z" fill="#263238"/>
<path d="M68.2728 45.8645C68.2728 45.8645 68.162 47.7792 67.9895 48.6562C67.9772 48.7426 65.1442 48.7921 63.6785 46.3216C63.6292 46.2351 63.7647 46.161 63.8386 46.2227C64.824 47.2974 66.068 47.7792 67.4352 48.0633C67.5461 47.8286 67.5091 44.7775 67.6569 44.7899C68.1496 44.8393 69.0242 45.3581 69.5661 45.6298C69.911 41.64 69.6154 37.6378 70.0095 33.6727C70.0218 33.5368 70.2312 33.5245 70.2559 33.6727C70.8594 37.8478 70.5638 42.4429 70.3175 46.5686C70.2928 47.0874 68.6177 46.0622 68.2974 45.8522L68.2728 45.8645Z" fill="#263238"/>
<path d="M66.8079 48.335C66.8079 48.335 65.8225 49.1997 64.7016 49.3479C64.2828 49.3973 63.8641 49.3726 63.4453 49.1626C62.6077 48.7303 62.7555 47.9027 63.0758 47.2356C63.3344 46.6921 63.7039 46.2475 63.7039 46.2475C63.7039 46.2475 64.7386 47.7544 66.8079 48.335Z" fill="#263238"/>
<path d="M64.7016 49.3479C64.2828 49.3973 63.8641 49.3726 63.4453 49.1626C62.6077 48.7303 62.7555 47.9027 63.0758 47.2357C64.0119 47.5445 64.8125 48.3968 64.7016 49.3479Z" fill="#FF9ABB"/>
<path d="M45.3135 38.1072C48.5652 39.4413 51.5213 31.931 51.5213 31.931C51.5213 31.931 66.536 33.3762 70.9086 21.975C70.9086 21.975 71.3643 30.1152 77.9663 35.5379C77.9663 35.5379 80.9224 22.5432 71.4259 17.2934C71.4259 17.2934 60.0448 9.27667 50.265 17.3922C40.4728 25.5078 43.121 37.1931 45.3135 38.0949V38.1072Z" fill="#263238"/>
<path d="M71.1923 21.1227C70.909 22.9632 70.1453 24.7296 69.1107 26.2983C68.076 27.8671 66.7211 29.2752 65.1199 30.3005C64.7381 30.5846 64.2947 30.7699 63.8882 31.0169L63.26 31.3505C63.0383 31.4493 62.8166 31.5234 62.6072 31.6099C62.1638 31.7704 61.7204 31.9557 61.277 32.1039C60.8212 32.2151 60.3655 32.3263 59.8974 32.4251C59.6634 32.4745 59.4417 32.5363 59.2077 32.5733L58.5056 32.6475L57.1138 32.7957C56.1777 32.7957 55.2539 32.7586 54.3301 32.7092C55.2539 32.5733 56.1653 32.5239 57.0768 32.3881L58.4194 32.1287L59.0845 32.0051C59.3062 31.9434 59.5156 31.8693 59.7373 31.8075C60.1684 31.6716 60.5995 31.5357 61.0306 31.4122C61.4494 31.2516 61.8559 31.0663 62.2747 30.8934L62.8905 30.634L63.4817 30.3005C63.8636 30.0658 64.2823 29.8929 64.6395 29.6088C66.1669 28.6576 67.4479 27.3606 68.5564 25.9401C69.1107 25.2237 69.6034 24.4578 70.0345 23.6549C70.4902 22.852 70.8474 22.012 71.1676 21.135L71.1923 21.1227Z" fill="#263238"/>
<path d="M47.4198 40.0589C47.4198 40.0589 44.7716 33.4874 41.8894 34.3027C39.0072 35.1179 40.0911 44.0117 42.8378 45.8275C45.5845 47.6433 47.3089 45.1234 47.3089 45.1234L47.4198 40.0465V40.0589Z" fill="#FFC4C0"/>
<path d="M42.2719 36.8473C42.2719 36.8473 42.198 36.8967 42.235 36.9214C44.1441 38.2678 44.8092 40.4789 45.1172 42.69C44.6738 41.7635 43.9101 41.1336 42.703 41.64C42.6414 41.6647 42.6661 41.7635 42.74 41.7635C43.6514 41.7759 44.2303 42.0723 44.6614 42.9C44.957 43.4805 45.1049 44.1723 45.265 44.8022C45.3142 45.0122 45.6838 44.9875 45.6591 44.7528C45.6591 44.7405 45.6591 44.7158 45.6591 44.7034C46.3366 42.0229 45.1049 37.7614 42.2842 36.8226L42.2719 36.8473Z" fill="#263238"/>
<path d="M44.7838 45.4322C44.6606 45.8275 44.2418 46.0498 43.8353 45.9263C43.4412 45.8028 43.2195 45.3828 43.3426 44.9752C43.4658 44.5675 43.8846 44.3576 44.2911 44.4811C44.6852 44.6046 44.9069 45.0246 44.7838 45.4322Z" fill="white"/>
<path d="M43.3802 43.7029C43.294 43.987 42.9861 44.1475 42.7028 44.0611C42.4195 43.9746 42.2594 43.6658 42.3456 43.3817C42.4318 43.0976 42.7398 42.937 43.023 43.0235C43.3063 43.11 43.4665 43.4188 43.3802 43.7029Z" fill="white"/>
<path d="M40.4766 35.1408L41.5488 35.5791C41.7427 35.6584 41.8372 35.8838 41.7582 36.0783L41.7442 36.1126C41.6652 36.307 41.4404 36.4019 41.2465 36.3226L40.1744 35.8843C39.9805 35.805 39.8859 35.5796 39.9649 35.3851L39.9789 35.3508C40.0579 35.1564 40.2827 35.0615 40.4766 35.1408Z" fill="#FFC727"/>
<path d="M41.063 36.6462L39.9347 36.4477C39.727 36.4112 39.5291 36.5504 39.4926 36.7587L39.4884 36.783C39.4519 36.9913 39.5908 37.1898 39.7985 37.2264L40.9267 37.4249C41.1345 37.4614 41.3324 37.3222 41.3688 37.1139L41.3731 37.0895C41.4095 36.8812 41.2707 36.6827 41.063 36.6462Z" fill="#FFC727"/>
<path d="M44.3543 25.7919L42.8516 27.0889L46.5467 33.3639L49.86 30.4117L44.3543 25.7919ZM46.9039 31.4987L44.2064 27.4718L44.5513 27.163L48.0987 30.4734L46.9162 31.4987H46.9039Z" fill="#FFC727"/>
<path d="M45.8197 22.9879L44.9082 24.7543L50.6973 29.1641L52.6557 25.1742L45.8197 22.9755V22.9879ZM50.3278 27.3236L46.3124 24.6184L46.5094 24.1984L51.0298 25.9277L50.3154 27.3236H50.3278Z" fill="#FFC727"/>
<path d="M153.41 0H96.2949V42.8258H153.41V0Z" fill="#FF4D29"/>
<path d="M113.957 42.8258H135.746L124.858 54.6348L113.957 42.8258Z" fill="#FF4D29"/>
<path d="M135.943 24.2478C130.893 30.9552 124.858 33.895 124.858 33.895C124.858 33.895 118.822 30.9552 113.772 24.2478C109.868 19.0721 110.065 10.9566 115.645 9.20255C121.815 7.26322 124.858 16.5769 124.858 16.5769C124.858 16.5769 127.937 7.20146 134.071 9.20255C139.638 11.0184 139.848 19.0721 135.943 24.2478Z" fill="white"/>
</g>
<defs>
<clipPath id="clip0_2339_1515">
<rect width="160" height="181" fill="white"/>
</clipPath>
</defs>
</svg>
